<svg xmlns="http://www.w3.org/2000/svg" width="865" height="624" viewBox="0 0 865 624">
  <defs>
    <style>
      .cls-1 {
        fill: #1d1d1d;
        fill-rule: evenodd;
      }
    </style>
  </defs>
  <path id="R_-_v6" data-name="R - v6" class="cls-1" d="M822.5,542.708c0,35.75,5.958,41.708,23.833,41.708a56.836,56.836,0,0,0,13-1.625l5.417,34.126c-16.792,5.416-24.375,6.5-38.459,6.5-31.417,0-48.75-13.542-48.75-66.626V469.582h-26V434.373h26V382.914H822.5v51.459h39v35.209h-39v73.126Zm-96.708,41.708a56.849,56.849,0,0,0,13-1.625l5.416,34.126c-16.791,5.416-24.375,6.5-38.458,6.5-31.417,0-48.751-13.542-48.751-66.626V469.582H631V434.373h26V382.914h44.959v51.459h39v35.209h-39v73.126C701.959,578.458,707.917,584.416,725.793,584.416ZM612.334,367.038c-24.917,0-31.958,16.25-31.958,54.709v13.168h39.542v36.834H580.376V620.043H535.959V471.749h-26V434.915h26V422.289c0-65.543,19.5-90.459,69.334-90.459,11.916,0,22.75,1.625,32.5,3.25l-4.875,33.583A170.139,170.139,0,0,0,612.334,367.038Zm-157.916,225.5c-5.417,11.917-29.25,30.876-65,30.876-54.168,0-88.293-35.751-88.293-96.418,0-61.209,35.209-97.5,88.293-97.5,40.625,0,59.583,19.5,65,32.5V434.915h44.417V618H454.418V592.541Zm-52-127.292c-29.792,0-54.168,20.583-54.168,61.208,0,41.167,23.292,61.209,53.626,61.209,24.419,0,45.317-13,52.542-39.259v-42.68C447.357,479.863,427.154,465.249,402.418,465.249ZM152,620V453.589L267,620h53L193,434s253.5-59.25,250-221C440.344,90.262,314,2,314,2L152,46l2-35a5.028,5.028,0,0,0-1-3,6.343,6.343,0,0,0-4-2L111,1s-3.75-.375-6,1a4.441,4.441,0,0,0-2,4l1,53S10.576,83.864,7,86c-9.625,5.75-7,25.167,0,29s30.226-3.458,58,4c16.315,4.381,29.712,12.233,39,17.53V620h48Zm0-262s19.728-52.974,20-106c0.232-45.25-20-74-20-74V358ZM410,213C405.652,114.015,305,39,305,39L93,96s111.166,25.5,114,143c2.342,97.092-37,166-37,166S415.823,345.564,410,213Z"/>
</svg>
